HIERARCHY
ROOT Hips
{
    OFFSET   0.000000   0.000000   0.000000
    CHANNELS 6 Xposition Yposition Zposition Zrotation Xrotation Yrotation
    JOINT Chest
    {
        OFFSET   0.000000   8.007230   0.000000
        CHANNELS 3 Zrotation Xrotation Yrotation
        JOINT Chest2
        {
            OFFSET   0.000000  22.077100   0.000000
            CHANNELS 3 Zrotation Xrotation Yrotation
            JOINT Neck
            {
                OFFSET   0.000000  23.255100   0.000000
                CHANNELS 3 Zrotation Xrotation Yrotation
                JOINT Head
                {
                    OFFSET   0.000000  14.370100   1.956600
                    CHANNELS 3 Zrotation Xrotation Yrotation
                    End Site
                    {
                        OFFSET   0.000000  19.566000   0.000000
                    }
                }
            }
            JOINT LeftCollar
            {
                OFFSET   3.911900  19.017000  -0.467063
                CHANNELS 3 Zrotation Xrotation Yrotation
                JOINT LeftShoulder
                {
                    OFFSET  10.383700   0.000000   0.000000
                    CHANNELS 3 Zrotation Xrotation Yrotation
                    JOINT LeftElbow
                    {
                        OFFSET  26.662100   0.001193   0.000980
                        CHANNELS 3 Zrotation Xrotation Yrotation
                        JOINT LeftWrist
                        {
                            OFFSET  28.869000  -0.000059  -0.000082
                            CHANNELS 3 Zrotation Xrotation Yrotation
                            JOINT LeftFinger0
                            {
                                OFFSET   2.044650  -2.323450   3.252850
                                CHANNELS 3 Zrotation Xrotation Yrotation
                                JOINT LeftFinger01
                                {
                                    OFFSET   3.088130   0.000000   0.000000
                                    CHANNELS 3 Zrotation Xrotation Yrotation
                                    JOINT LeftFinger02
                                    {
                                        OFFSET   2.639460   0.000000   0.000000
                                        CHANNELS 3 Zrotation Xrotation Yrotation
                                        End Site
                                        {
                                            OFFSET   2.582190   0.000000   0.000000
                                        }
                                    }
                                }
                            }
                            JOINT LeftFinger1
                            {
                                OFFSET   8.364480   0.000000   3.252850
                                CHANNELS 3 Zrotation Xrotation Yrotation
                                JOINT LeftFinger11
                                {
                                    OFFSET   4.646930   0.000000   0.000000
                                    CHANNELS 3 Zrotation Xrotation Yrotation
                                    JOINT LeftFinger12
                                    {
                                        OFFSET   2.323470   0.000000   0.000000
                                        CHANNELS 3 Zrotation Xrotation Yrotation
                                        End Site
                                        {
                                            OFFSET   2.273050   0.000000   0.000000
                                        }
                                    }
                                }
                            }
                            JOINT LeftFinger2
                            {
                                OFFSET   8.364490   0.000016   1.078090
                                CHANNELS 3 Zrotation Xrotation Yrotation
                                JOINT LeftFinger21
                                {
                                    OFFSET   5.111610   0.000000   0.000000
                                    CHANNELS 3 Zrotation Xrotation Yrotation
                                    JOINT LeftFinger22
                                    {
                                        OFFSET   2.788150   0.000016   0.000000
                                        CHANNELS 3 Zrotation Xrotation Yrotation
                                        End Site
                                        {
                                            OFFSET   2.727660   0.000000   0.000000
                                        }
                                    }
                                }
                            }
                            JOINT LeftFinger3
                            {
                                OFFSET   7.899780   0.000015  -1.078090
                                CHANNELS 3 Zrotation Xrotation Yrotation
                                JOINT LeftFinger31
                                {
                                    OFFSET   4.646930   0.000000   0.000000
                                    CHANNELS 3 Zrotation Xrotation Yrotation
                                    JOINT LeftFinger32
                                    {
                                        OFFSET   2.323470   0.000000   0.000000
                                        CHANNELS 3 Zrotation Xrotation Yrotation
                                        End Site
                                        {
                                            OFFSET   2.273050   0.000000   0.000000
                                        }
                                    }
                                }
                            }
                            JOINT LeftFinger4
                            {
                                OFFSET   7.435090   0.000000  -3.252850
                                CHANNELS 3 Zrotation Xrotation Yrotation
                                JOINT LeftFinger41
                                {
                                    OFFSET   3.717550   0.000000   0.000000
                                    CHANNELS 3 Zrotation Xrotation Yrotation
                                    JOINT LeftFinger42
                                    {
                                        OFFSET   1.858770   0.000000   0.000000
                                        CHANNELS 3 Zrotation Xrotation Yrotation
                                        End Site
                                        {
                                            OFFSET   1.818440   0.000000   0.000000
                                        }
                                    }
                                }
                            }
                        }
                    }
                }
            }
            JOINT RightCollar
            {
                OFFSET  -3.911910  19.017000  -0.467062
                CHANNELS 3 Zrotation Xrotation Yrotation
                JOINT RightShoulder
                {
                    OFFSET -10.383700   0.000014   0.000000
                    CHANNELS 3 Zrotation Xrotation Yrotation
                    JOINT RightElbow
                    {
                        OFFSET -26.662100   0.001225   0.001091
                        CHANNELS 3 Zrotation Xrotation Yrotation
                        JOINT RightWrist
                        {
                            OFFSET -28.869000  -0.000020  -0.000085
                            CHANNELS 3 Zrotation Xrotation Yrotation
                            JOINT RightFinger0
                            {
                                OFFSET  -2.044650  -2.323490   3.252850
                                CHANNELS 3 Zrotation Xrotation Yrotation
                                JOINT RightFinger01
                                {
                                    OFFSET  -3.088130   0.000000   0.000000
                                    CHANNELS 3 Zrotation Xrotation Yrotation
                                    JOINT RightFinger02
                                    {
                                        OFFSET  -2.639460   0.000000   0.000000
                                        CHANNELS 3 Zrotation Xrotation Yrotation
                                        End Site
                                        {
                                            OFFSET  -2.582190   0.000000   0.000000
                                        }
                                    }
                                }
                            }
                            JOINT RightFinger1
                            {
                                OFFSET  -8.364480   0.000000   3.252850
                                CHANNELS 3 Zrotation Xrotation Yrotation
                                JOINT RightFinger11
                                {
                                    OFFSET  -4.646930   0.000000   0.000000
                                    CHANNELS 3 Zrotation Xrotation Yrotation
                                    JOINT RightFinger12
                                    {
                                        OFFSET  -2.323470   0.000000   0.000000
                                        CHANNELS 3 Zrotation Xrotation Yrotation
                                        End Site
                                        {
                                            OFFSET  -2.273050   0.000000   0.000000
                                        }
                                    }
                                }
                            }
                            JOINT RightFinger2
                            {
                                OFFSET  -8.364480   0.000000   1.078090
                                CHANNELS 3 Zrotation Xrotation Yrotation
                                JOINT RightFinger21
                                {
                                    OFFSET  -5.111620   0.000000   0.000000
                                    CHANNELS 3 Zrotation Xrotation Yrotation
                                    JOINT RightFinger22
                                    {
                                        OFFSET  -2.788160   0.000000   0.000000
                                        CHANNELS 3 Zrotation Xrotation Yrotation
                                        End Site
                                        {
                                            OFFSET  -2.727660   0.000000   0.000000
                                        }
                                    }
                                }
                            }
                            JOINT RightFinger3
                            {
                                OFFSET  -7.899780   0.000000  -1.078090
                                CHANNELS 3 Zrotation Xrotation Yrotation
                                JOINT RightFinger31
                                {
                                    OFFSET  -4.646930   0.000000   0.000000
                                    CHANNELS 3 Zrotation Xrotation Yrotation
                                    JOINT RightFinger32
                                    {
                                        OFFSET  -2.323470   0.000000   0.000000
                                        CHANNELS 3 Zrotation Xrotation Yrotation
                                        End Site
                                        {
                                            OFFSET  -2.273050   0.000000   0.000000
                                        }
                                    }
                                }
                            }
                            JOINT RightFinger4
                            {
                                OFFSET  -7.435090   0.000000  -3.252850
                                CHANNELS 3 Zrotation Xrotation Yrotation
                                JOINT RightFinger41
                                {
                                    OFFSET  -3.717550   0.000000   0.000000
                                    CHANNELS 3 Zrotation Xrotation Yrotation
                                    JOINT RightFinger42
                                    {
                                        OFFSET  -1.858760   0.000000   0.000000
                                        CHANNELS 3 Zrotation Xrotation Yrotation
                                        End Site
                                        {
                                            OFFSET  -1.818440   0.000000   0.000000
                                        }
                                    }
                                }
                            }
                        }
                    }
                }
            }
        }
    }
    JOINT LeftHip
    {
        OFFSET   9.783030   0.000000   0.000000
        CHANNELS 3 Zrotation Xrotation Yrotation
        JOINT LeftKnee
        {
            OFFSET   0.000063 -41.789100   0.000608
            CHANNELS 3 Zrotation Xrotation Yrotation
            JOINT LeftAnkle
            {
                OFFSET   0.000048 -41.133200  -0.000184
                CHANNELS 3 Zrotation Xrotation Yrotation
                JOINT LeftToe
                {
                    OFFSET   0.000000  -6.358960  14.674500
                    CHANNELS 3 Zrotation Xrotation Yrotation
                    End Site
                    {
                        OFFSET   0.000000   0.000000   3.913200
                    }
                }
            }
        }
    }
    JOINT RightHip
    {
        OFFSET  -9.783030   0.000000   0.000000
        CHANNELS 3 Zrotation Xrotation Yrotation
        JOINT RightKnee
        {
            OFFSET   0.000071 -41.789100   0.001239
            CHANNELS 3 Zrotation Xrotation Yrotation
            JOINT RightAnkle
            {
                OFFSET   0.000037 -41.133200  -0.000166
                CHANNELS 3 Zrotation Xrotation Yrotation
                JOINT RightToe
                {
                    OFFSET   0.000000  -6.358960  14.674500
                    CHANNELS 3 Zrotation Xrotation Yrotation
                    End Site
                    {
                        OFFSET   0.000000   0.000000   3.913200
                    }
                }
            }
        }
    }
}
MOTION
Frames: 4
Frame Time:   0.016667
 -2.485000  89.386300   1.522260  -4.176910 -15.491900  -4.279410   1.742210   8.564850   0.777732   3.423740  17.149500   1.310700   3.527010  -6.207110   0.381718   5.980200 -12.443300   0.721594  -6.775690  -4.571170   0.987517 -69.236100  31.482700  -4.528080  -2.546890 -12.319600 -15.198100  16.841000 -16.472500   5.572170  36.789500  28.494600 -59.961900 -31.871600   0.122492   0.076235 -10.935800   0.061363  -0.003093 -35.413800   7.453290 -10.338900 -29.527600   0.002575   0.000544 -20.668500   0.004098   0.001222 -29.501400   0.390513  -0.690067 -44.255600  -0.029907  -0.030440 -29.474200  -0.010163  -0.026544 -28.688300   0.016354  -0.029946 -38.847300   0.003151   0.005065 -25.870900   0.004442   0.006041 -34.899500   0.019529  -0.027999 -52.349300   0.011496   0.001389 -34.864600   0.001931   0.001741   7.766670  -5.935790  13.139000  22.785700   8.706920  85.106000 -37.500900 -33.520800  67.726400 -45.148200   2.664530  20.247000 -59.040400  54.333300 108.293000 -15.695000   0.002348   0.000703 -12.843700  -0.006890   0.000587  38.157900   7.964310  10.001100  31.787700  -0.007134  -0.002234  22.251400   0.004215  -0.003329  29.386400   0.785202   1.394030  44.092800   0.001801  -0.003376  29.365800   0.022372  -0.003213  27.679100  -4.035250  -7.640900  31.672700   0.005318   0.000366  21.094000   0.003245  -0.010816  40.699700  -5.656150  -6.535810  61.533600   0.000426  -0.002426  40.981400   0.000547   0.000352   4.704450  19.387900   5.209210   1.324760   0.155685  12.937900  -4.151750  -3.674400   0.483352   0.000000   0.000000  -0.000000   4.779010  18.539500  -1.098520   0.533738   1.361470 -12.194800  -1.394800  -5.299440   0.780787  -0.000000   0.000000   0.000000
 -2.467550  89.391800   1.520670  -4.181790 -15.479700  -4.280320   1.737250   8.564410   0.791034   3.411580  17.148600   1.338530   3.513640  -6.241490   0.381152   5.964500 -12.513400   0.683464  -6.785040  -4.570250   0.968566 -69.245700  31.443600  -4.518320  -2.541910 -12.294600 -15.218600  16.843300 -16.476500   5.561470  36.799700  28.509300 -59.966200 -31.868700   0.108695   0.067655 -10.934400   0.054109  -0.003098 -35.417100   7.438600 -10.318200 -29.527800   0.002503   0.000885 -20.669500   0.004723   0.001459 -29.498900   0.376954  -0.666254 -44.251700  -0.031212  -0.032241 -29.471600  -0.010530  -0.027977 -28.688400   0.007920  -0.014471 -38.841400  -0.000657   0.005007 -25.868400   0.004243   0.006041 -34.900400   0.009439  -0.013530 -52.350600   0.010595   0.001930 -34.865500   0.002097   0.001929   7.772130  -5.918140  13.115700  23.016300   8.862660  84.915300 -37.418900 -33.463800  68.034200 -45.093000   2.559930  20.257200 -59.040400  54.333300 108.293000 -15.695000   0.002341   0.000729 -12.843900  -0.007012   0.000609  38.122800   8.028980  10.092400  31.772200  -0.007094  -0.002189  22.240500   0.001127  -0.003380  29.376500   0.859073   1.525940  44.081500   0.001814  -0.003397  29.358300   0.007548  -0.003262  27.677300  -4.031520  -7.634280  31.657600   0.005245   0.000378  21.083900   0.003318  -0.010931  40.685500  -5.649090  -6.531860  61.512100   0.000421  -0.002360  40.967100   0.000493   0.000310   4.697960  19.392200   5.214980   1.316880   0.130003  12.933100  -4.137110  -3.671110   0.488483  -0.000000   0.000000   0.000000   4.768820  18.531100  -1.095360   0.537381   1.354650 -12.207000  -1.386470  -5.291590   0.791665  -0.000000   0.000000   0.000000
 -2.445410  89.396100   1.520710  -4.179980 -15.464900  -4.279280   1.733040   8.565290   0.799447   3.401610  17.150400   1.356420   3.493240  -6.284900   0.380597   5.936810 -12.601900   0.684080  -6.791770  -4.570310   0.965481 -69.255800  31.420000  -4.518570  -2.537500 -12.293900 -15.236300  16.843400 -16.463300   5.558630  36.819400  28.533900 -59.967600 -31.858100   0.046428   0.031529 -10.931200   0.022839  -0.003102 -35.407000   7.428750 -10.308500 -29.519000   0.002306   0.001256 -20.663300   0.004726   0.001732 -29.489600   0.370844  -0.655687 -44.237800  -0.018226  -0.020524 -29.462300  -0.005694  -0.016956 -28.688500   0.003309  -0.005527 -38.824900  -0.000975   0.005015 -25.857900   0.003922   0.006041 -34.895800   0.003603  -0.005165 -52.343700   0.009506   0.002591 -34.860900   0.001950   0.002171   7.783890  -5.901810  13.105400  23.211900   9.043690  84.744400 -37.423400 -33.496100  68.442000 -45.041200   2.481820  20.303200 -59.040400  54.333300 108.293000 -15.695000   0.002343   0.000713 -12.844000  -0.007132   0.000631  38.093800   8.140520  10.239200  31.772300  -0.007058  -0.002139  22.240600  -0.002658  -0.003435  29.373300   0.969172   1.722140  44.084800   0.001831  -0.003417  29.360500   0.001981  -0.003312  27.680700  -3.995140  -7.565160  31.653000   0.005174   0.000391  21.080900   0.003396  -0.011051  40.683600  -5.596220  -6.474290  61.506600   0.000421  -0.002293  40.963400   0.000440   0.000265   4.686960  19.386500   5.223380   1.310480   0.117975  12.926000  -4.122970  -3.670970   0.491055  -0.000000   0.000000  -0.000000   4.753000  18.512400  -1.085190   0.538998   1.358140 -12.209600  -1.374140  -5.286940   0.786695  -0.000000   0.000000   0.000000
 -2.420710  89.400500   1.520850  -4.176420 -15.448400  -4.274370   1.729180   8.566760   0.802919   3.393330  17.153500   1.363890   3.470170  -6.332120   0.380046   5.896340 -12.698300   0.687006  -6.798780  -4.570670   0.965040 -69.260800  31.411000  -4.525360  -2.531380 -12.295500 -15.249600  16.845900 -16.445200   5.557750  36.835300  28.555200 -59.972300 -31.850600  -0.004014   0.002757 -10.928100  -0.002211  -0.003103 -35.398000   7.421150 -10.301700 -29.510100   0.002185   0.001660 -20.657000   0.004727   0.002033 -29.482000   0.366996  -0.649111 -44.226200  -0.002994  -0.004404 -29.454600  -0.000770  -0.003441 -28.688600  -0.000356   0.001573 -38.811300  -0.001070   0.005061 -25.848300   0.003614   0.006041 -34.889500  -0.001030   0.001476 -52.334200   0.008286   0.003342 -34.854600   0.001705   0.002473   7.798970  -5.886540  13.102900  23.322400   9.260890  84.589600 -37.511000 -33.575100  68.906300 -45.005000   2.415140  20.393000 -59.040400  54.333300 108.293000 -15.695000   0.002344   0.000697 -12.844200  -0.007251   0.000652  38.081400   8.259950  10.390100  31.772800  -0.007023  -0.002086  22.241000  -0.005608  -0.003489  29.387400   1.082990   1.923350  44.107900   0.001847  -0.003437  29.375900   0.000491  -0.003361  27.690200  -3.930690  -7.441460  31.652400   0.005108   0.000400  21.080500   0.003474  -0.011169  40.697800  -5.507510  -6.366530  61.505800   0.000421  -0.002228  40.962900   0.000385   0.000219   4.672450  19.380800   5.231570   1.305080   0.098967  12.919300  -4.108470  -3.670840   0.491577  -0.000000   0.000000  -0.000000   4.732940  18.491000  -1.073830   0.540580   1.361650 -12.210700  -1.360810  -5.282140   0.778586  -0.000000   0.000000   0.000000
